<?xml version="1.0" standalone="no"?>
<!DOCTYPE svg PUBLIC "-//W3C//DTD SVG 20010904//EN"
 "http://www.w3.org/TR/2001/REC-SVG-20010904/DTD/svg10.dtd">
<svg version="1.0" xmlns="http://www.w3.org/2000/svg"
 width="2480.000000pt" height="3508.000000pt" viewBox="0 0 2480.000000 3508.000000"
 preserveAspectRatio="xMidYMid meet">

<g transform="translate(0.000000,3508.000000) scale(0.100000,-0.100000)"
fill="#000000" stroke="none">
<path d="M12500 28854 c-410 -19 -680 -41 -1028 -84 -2222 -278 -4317 -1221
-6017 -2709 -350 -307 -749 -706 -1056 -1056 -1290 -1474 -2173 -3248 -2564
-5148 -571 -2777 -91 -5651 1348 -8067 1550 -2602 4071 -4476 6995 -5199 2746
-680 5670 -303 8139 1050 1777 974 3260 2405 4300 4149 790 1325 1301 2814
1493 4342 66 535 84 837 84 1428 0 591 -18 893 -84 1428 -243 1938 -989 3778
-2172 5354 -1162 1547 -2721 2786 -4480 3561 -1226 539 -2481 843 -3868 937
-154 11 -946 21 -1090 14z m2860 -10369 l0 -694 44 30 c91 61 223 106 391 134
134 23 401 30 520 15 329 -41 604 -209 715 -438 63 -130 60 24 60 -2524 l0
-2328 -645 0 -645 0 0 2163 c0 2076 -1 2164 -19 2202 -37 83 -117 122 -228
112 -95 -9 -146 -43 -178 -119 -13 -33 -15 -270 -15 -2198 l0 -2160 -645 0
-645 0 0 3250 0 3250 645 0 645 0 0 -695z m-8890 -15 l0 -530 350 0 350 0 0
-385 0 -385 -350 0 -350 0 2 -1667 c3 -1571 4 -1671 21 -1714 39 -101 113
-155 248 -183 88 -18 283 -36 392 -36 l77 0 0 -445 0 -445 -497 0 c-650 0
-864 17 -1083 85 -273 86 -361 220 -427 655 -16 105 -18 272 -23 1930 l-5
1815 -287 3 -288 2 0 385 0 385 290 0 290 0 0 530 0 530 645 0 645 0 0 -530z
m2920 -515 c557 -77 890 -288 1020 -643 67 -184 63 -115 67 -1314 l4 -1088
-871 0 -870 0 0 -627 c0 -679 2 -710 53 -776 71 -93 244 -102 328 -18 68 68
69 75 69 698 l0 553 645 0 645 0 0 -557 c0 -311 -5 -598 -10 -648 -20 -171
-64 -302 -142 -423 -175 -267 -490 -422 -988 -484 -158 -20 -632 -17 -790 5
-254 35 -478 105 -642 203 -104 61 -257 212 -311 304 -52 89 -92 197 -119 321
l-23 104 0 1730 0 1730 23 104 c48 218 113 342 252 481 214 214 505 321 990
364 105 9 560 -4 670 -19z m3320 1 c567 -80 887 -292 1017 -671 51 -151 53
-183 53 -956 l0 -719 -639 0 -640 0 -4 688 c-4 757 -2 735 -67 803 -93 98
-293 70 -352 -48 l-23 -48 -3 -1680 c-2 -1234 0 -1694 8 -1733 32 -149 220
-212 354 -119 16 11 40 45 55 76 l26 56 3 678 3 677 640 0 639 0 0 -709 c0
-578 -3 -724 -15 -792 -73 -419 -357 -681 -853 -789 -165 -36 -298 -50 -527
-57 -733 -20 -1227 150 -1459 501 -86 130 -135 266 -156 436 -14 116 -14 3374
0 3490 21 170 70 306 156 436 186 281 539 445 1064 494 138 13 594 4 720 -14z"/>
<path d="M8875 17144 c-51 -19 -83 -49 -109 -104 -21 -44 -21 -57 -24 -692
l-3 -648 226 0 226 0 -3 653 c-3 726 0 692 -72 755 -59 51 -158 66 -241 36z"/>
</g>
</svg>
